<svg xmlns="http://www.w3.org/2000/svg" xmlns:xlink="http://www.w3.org/1999/xlink" width="500" zoomAndPan="magnify" viewBox="0 0 375 374.999991" height="500" preserveAspectRatio="xMidYMid meet" version="1.0"><defs><clipPath id="8dc0a3a0ea"><path d="M 5.355469 123.414062 L 105 123.414062 L 105 251.664062 L 5.355469 251.664062 Z M 5.355469 123.414062 " clip-rule="nonzero"/></clipPath><clipPath id="6db8acf4cb"><path d="M 60.320312 251.507812 C 53.492188 252.277344 48.152344 250.097656 44.425781 247.28125 C 40.703125 244.464844 38.84375 240.527344 38.84375 235.46875 C 38.84375 232.890625 39.222656 230.40625 39.988281 228.023438 L 49.890625 190.28125 C 43.972656 196.484375 36.953125 199.589844 28.84375 199.589844 C 24.546875 199.589844 20.613281 198.5625 17.03125 196.511719 C 13.453125 194.460938 10.632812 191.402344 8.582031 187.347656 C 6.527344 183.289062 5.5 178.445312 5.5 172.8125 C 5.5 168.132812 6.074219 163.648438 7.21875 159.351562 C 9.222656 151.429688 12.351562 144.769531 16.597656 139.378906 C 20.84375 133.984375 25.761719 129.976562 31.347656 127.351562 C 36.929688 124.722656 42.726562 123.414062 48.746094 123.414062 C 54.375 123.414062 59.125 124.226562 62.992188 125.847656 C 66.855469 127.472656 70.316406 129.953125 73.371094 133.292969 L 82.945312 125.394531 C 83.378906 125.042969 83.917969 124.847656 84.472656 124.847656 L 102.511719 124.847656 C 104.109375 124.847656 105.261719 126.375 104.820312 127.90625 L 77.214844 224.300781 C 76.453125 227.070312 76.070312 228.980469 76.070312 230.027344 C 76.070312 231.269531 76.378906 232.125 77 232.605469 C 77.621094 233.082031 78.648438 233.320312 80.078125 233.320312 C 80.699219 233.320312 81.386719 233.28125 82.136719 233.195312 C 83.359375 233.058594 84.570312 232.824219 85.765625 232.523438 L 90.882812 231.265625 C 91.992188 230.992188 92.878906 232.199219 92.285156 233.175781 C 92.285156 233.179688 79.488281 249.351562 60.320312 251.507812 Z M 60.320312 251.507812 " clip-rule="nonzero"/></clipPath><linearGradient x1="-45.420075" gradientTransform="matrix(0.337233, 0, 0, 0.337243, 5.500808, 123.412507)" y1="259.509321" x2="339.0404" gradientUnits="userSpaceOnUse" y2="114.931336" id="1417703e77"><stop stop-opacity="1" stop-color="rgb(100%, 32.899475%, 30.999756%)" offset="0"/><stop stop-opacity="1" stop-color="rgb(100%, 32.899475%, 30.999756%)" offset="0.125"/><stop stop-opacity="1" stop-color="rgb(100%, 33.091736%, 30.960083%)" offset="0.1875"/><stop stop-opacity="1" stop-color="rgb(100%, 33.407593%, 30.897522%)" offset="0.203125"/><stop stop-opacity="1" stop-color="rgb(100%, 33.654785%, 30.848694%)" offset="0.21875"/><stop stop-opacity="1" stop-color="rgb(100%, 33.900452%, 30.79834%)" offset="0.234375"/><stop stop-opacity="1" stop-color="rgb(100%, 34.146118%, 30.749512%)" offset="0.25"/><stop stop-opacity="1" stop-color="rgb(100%, 34.391785%, 30.700684%)" offset="0.265625"/><stop stop-opacity="1" stop-color="rgb(100%, 34.638977%, 30.651855%)" offset="0.28125"/><stop stop-opacity="1" stop-color="rgb(100%, 34.953308%, 30.574036%)" offset="0.296875"/><stop stop-opacity="1" stop-color="rgb(100%, 35.282898%, 30.477905%)" offset="0.304688"/><stop stop-opacity="1" stop-color="rgb(100%, 35.560608%, 30.39093%)" offset="0.3125"/><stop stop-opacity="1" stop-color="rgb(100%, 35.838318%, 30.303955%)" offset="0.320312"/><stop stop-opacity="1" stop-color="rgb(100%, 36.116028%, 30.21698%)" offset="0.325889"/><stop stop-opacity="1" stop-color="rgb(100%, 36.254883%, 30.174255%)" offset="0.328125"/><stop stop-opacity="1" stop-color="rgb(100%, 36.393738%, 30.130005%)" offset="0.335937"/><stop stop-opacity="1" stop-color="rgb(100%, 36.671448%, 30.04303%)" offset="0.34375"/><stop stop-opacity="1" stop-color="rgb(100%, 36.949158%, 29.956055%)" offset="0.351562"/><stop stop-opacity="1" stop-color="rgb(100%, 37.226868%, 29.86908%)" offset="0.359375"/><stop stop-opacity="1" stop-color="rgb(100%, 37.503052%, 29.782104%)" offset="0.367187"/><stop stop-opacity="1" stop-color="rgb(100%, 37.780762%, 29.693604%)" offset="0.375"/><stop stop-opacity="1" stop-color="rgb(100%, 38.058472%, 29.606628%)" offset="0.382812"/><stop stop-opacity="1" stop-color="rgb(100%, 38.336182%, 29.519653%)" offset="0.390625"/><stop stop-opacity="1" stop-color="rgb(100%, 38.613892%, 29.432678%)" offset="0.398437"/><stop stop-opacity="1" stop-color="rgb(100%, 38.891602%, 29.345703%)" offset="0.40625"/><stop stop-opacity="1" stop-color="rgb(100%, 39.169312%, 29.258728%)" offset="0.414062"/><stop stop-opacity="1" stop-color="rgb(100%, 39.447021%, 29.171753%)" offset="0.421875"/><stop stop-opacity="1" stop-color="rgb(100%, 39.724731%, 29.084778%)" offset="0.429687"/><stop stop-opacity="1" stop-color="rgb(100%, 40.049744%, 28.990173%)" offset="0.4375"/><stop stop-opacity="1" stop-color="rgb(100%, 40.467834%, 28.878784%)" offset="0.441406"/><stop stop-opacity="1" stop-color="rgb(100%, 40.699768%, 28.820801%)" offset="0.445312"/><stop stop-opacity="1" stop-color="rgb(100%, 40.931702%, 28.761292%)" offset="0.449219"/><stop stop-opacity="1" stop-color="rgb(100%, 41.165161%, 28.701782%)" offset="0.453125"/><stop stop-opacity="1" stop-color="rgb(100%, 41.397095%, 28.642273%)" offset="0.457031"/><stop stop-opacity="1" stop-color="rgb(100%, 41.629028%, 28.582764%)" offset="0.460938"/><stop stop-opacity="1" stop-color="rgb(100%, 41.860962%, 28.523254%)" offset="0.464844"/><stop stop-opacity="1" stop-color="rgb(100%, 42.092896%, 28.463745%)" offset="0.46875"/><stop stop-opacity="1" stop-color="rgb(100%, 42.324829%, 28.404236%)" offset="0.472656"/><stop stop-opacity="1" stop-color="rgb(100%, 42.558289%, 28.344727%)" offset="0.476562"/><stop stop-opacity="1" stop-color="rgb(100%, 42.790222%, 28.285217%)" offset="0.480469"/><stop stop-opacity="1" stop-color="rgb(100%, 43.022156%, 28.227234%)" offset="0.484375"/><stop stop-opacity="1" stop-color="rgb(100%, 43.254089%, 28.167725%)" offset="0.488281"/><stop stop-opacity="1" stop-color="rgb(100%, 43.486023%, 28.108215%)" offset="0.492188"/><stop stop-opacity="1" stop-color="rgb(100%, 43.717957%, 28.048706%)" offset="0.496094"/><stop stop-opacity="1" stop-color="rgb(100%, 43.951416%, 27.989197%)" offset="0.5"/><stop stop-opacity="1" stop-color="rgb(100%, 44.18335%, 27.929688%)" offset="0.503906"/><stop stop-opacity="1" stop-color="rgb(100%, 44.415283%, 27.870178%)" offset="0.507812"/><stop stop-opacity="1" stop-color="rgb(100%, 44.647217%, 27.810669%)" offset="0.511719"/><stop stop-opacity="1" stop-color="rgb(100%, 44.87915%, 27.752686%)" offset="0.515625"/><stop stop-opacity="1" stop-color="rgb(100%, 45.111084%, 27.693176%)" offset="0.519531"/><stop stop-opacity="1" stop-color="rgb(100%, 45.343018%, 27.633667%)" offset="0.523438"/><stop stop-opacity="1" stop-color="rgb(100%, 45.574951%, 27.574158%)" offset="0.527344"/><stop stop-opacity="1" stop-color="rgb(100%, 45.808411%, 27.514648%)" offset="0.53125"/><stop stop-opacity="1" stop-color="rgb(100%, 46.040344%, 27.455139%)" offset="0.535156"/><stop stop-opacity="1" stop-color="rgb(100%, 46.272278%, 27.39563%)" offset="0.539062"/><stop stop-opacity="1" stop-color="rgb(100%, 46.504211%, 27.336121%)" offset="0.542969"/><stop stop-opacity="1" stop-color="rgb(100%, 46.736145%, 27.278137%)" offset="0.546875"/><stop stop-opacity="1" stop-color="rgb(100%, 46.968079%, 27.218628%)" offset="0.550781"/><stop stop-opacity="1" stop-color="rgb(100%, 47.201538%, 27.159119%)" offset="0.554687"/><stop stop-opacity="1" stop-color="rgb(100%, 47.433472%, 27.099609%)" offset="0.558594"/><stop stop-opacity="1" stop-color="rgb(100%, 47.665405%, 27.0401%)" offset="0.5625"/><stop stop-opacity="1" stop-color="rgb(100%, 47.897339%, 26.980591%)" offset="0.566406"/><stop stop-opacity="1" stop-color="rgb(100%, 48.129272%, 26.921082%)" offset="0.570312"/><stop stop-opacity="1" stop-color="rgb(100%, 48.361206%, 26.861572%)" offset="0.574219"/><stop stop-opacity="1" stop-color="rgb(100%, 48.59314%, 26.803589%)" offset="0.578125"/><stop stop-opacity="1" stop-color="rgb(100%, 48.834229%, 26.741028%)" offset="0.582031"/><stop stop-opacity="1" stop-color="rgb(100%, 49.076843%, 26.678467%)" offset="0.585938"/><stop stop-opacity="1" stop-color="rgb(100%, 49.383545%, 26.597595%)" offset="0.589844"/><stop stop-opacity="1" stop-color="rgb(100%, 49.691772%, 26.51825%)" offset="0.59375"/><stop stop-opacity="1" stop-color="rgb(100%, 49.998474%, 26.437378%)" offset="0.597656"/><stop stop-opacity="1" stop-color="rgb(100%, 50.306702%, 26.356506%)" offset="0.601562"/><stop stop-opacity="1" stop-color="rgb(100%, 50.613403%, 26.275635%)" offset="0.605469"/><stop stop-opacity="1" stop-color="rgb(100%, 50.921631%, 26.194763%)" offset="0.609375"/><stop stop-opacity="1" stop-color="rgb(100%, 51.228333%, 26.113892%)" offset="0.613281"/><stop stop-opacity="1" stop-color="rgb(100%, 51.53656%, 26.03302%)" offset="0.617187"/><stop stop-opacity="1" stop-color="rgb(100%, 51.843262%, 25.952148%)" offset="0.621094"/><stop stop-opacity="1" stop-color="rgb(100%, 52.151489%, 25.872803%)" offset="0.625"/><stop stop-opacity="1" stop-color="rgb(100%, 52.458191%, 25.791931%)" offset="0.628906"/><stop stop-opacity="1" stop-color="rgb(100%, 52.766418%, 25.71106%)" offset="0.632812"/><stop stop-opacity="1" stop-color="rgb(100%, 53.07312%, 25.630188%)" offset="0.636719"/><stop stop-opacity="1" stop-color="rgb(100%, 53.381348%, 25.549316%)" offset="0.640625"/><stop stop-opacity="1" stop-color="rgb(100%, 53.688049%, 25.468445%)" offset="0.644531"/><stop stop-opacity="1" stop-color="rgb(100%, 53.996277%, 25.389099%)" offset="0.648438"/><stop stop-opacity="1" stop-color="rgb(100%, 54.302979%, 25.308228%)" offset="0.652344"/><stop stop-opacity="1" stop-color="rgb(100%, 54.611206%, 25.227356%)" offset="0.65625"/><stop stop-opacity="1" stop-color="rgb(100%, 54.917908%, 25.146484%)" offset="0.660156"/><stop stop-opacity="1" stop-color="rgb(100%, 55.226135%, 25.065613%)" offset="0.664062"/><stop stop-opacity="1" stop-color="rgb(100%, 55.532837%, 24.984741%)" offset="0.667969"/><stop stop-opacity="1" stop-color="rgb(100%, 55.841064%, 24.905396%)" offset="0.671875"/><stop stop-opacity="1" stop-color="rgb(100%, 56.147766%, 24.824524%)" offset="0.675781"/><stop stop-opacity="1" stop-color="rgb(100%, 56.455994%, 24.743652%)" offset="0.679687"/><stop stop-opacity="1" stop-color="rgb(100%, 56.762695%, 24.662781%)" offset="0.683594"/><stop stop-opacity="1" stop-color="rgb(100%, 57.069397%, 24.581909%)" offset="0.6875"/><stop stop-opacity="1" stop-color="rgb(100%, 57.376099%, 24.501038%)" offset="0.691406"/><stop stop-opacity="1" stop-color="rgb(100%, 57.684326%, 24.421692%)" offset="0.695312"/><stop stop-opacity="1" stop-color="rgb(100%, 57.991028%, 24.34082%)" offset="0.699219"/><stop stop-opacity="1" stop-color="rgb(100%, 58.299255%, 24.259949%)" offset="0.703125"/><stop stop-opacity="1" stop-color="rgb(100%, 58.605957%, 24.179077%)" offset="0.707031"/><stop stop-opacity="1" stop-color="rgb(100%, 58.914185%, 24.098206%)" offset="0.710938"/><stop stop-opacity="1" stop-color="rgb(100%, 59.220886%, 24.017334%)" offset="0.714844"/><stop stop-opacity="1" stop-color="rgb(100%, 59.529114%, 23.936462%)" offset="0.71875"/><stop stop-opacity="1" stop-color="rgb(100%, 59.835815%, 23.855591%)" offset="0.722656"/><stop stop-opacity="1" stop-color="rgb(100%, 60.144043%, 23.776245%)" offset="0.726562"/><stop stop-opacity="1" stop-color="rgb(100%, 60.450745%, 23.695374%)" offset="0.730469"/><stop stop-opacity="1" stop-color="rgb(100%, 60.758972%, 23.614502%)" offset="0.734375"/><stop stop-opacity="1" stop-color="rgb(100%, 61.087036%, 23.529053%)" offset="0.738281"/><stop stop-opacity="1" stop-color="rgb(100%, 61.4151%, 23.443604%)" offset="0.742187"/><stop stop-opacity="1" stop-color="rgb(100%, 61.795044%, 23.345947%)" offset="0.746094"/><stop stop-opacity="1" stop-color="rgb(100%, 62.176514%, 23.249817%)" offset="0.75"/><stop stop-opacity="1" stop-color="rgb(100%, 62.556458%, 23.152161%)" offset="0.753906"/><stop stop-opacity="1" stop-color="rgb(100%, 62.937927%, 23.054504%)" offset="0.757812"/><stop stop-opacity="1" stop-color="rgb(100%, 63.317871%, 22.956848%)" offset="0.761719"/><stop stop-opacity="1" stop-color="rgb(100%, 63.697815%, 22.860718%)" offset="0.765625"/><stop stop-opacity="1" stop-color="rgb(100%, 64.077759%, 22.763062%)" offset="0.769531"/><stop stop-opacity="1" stop-color="rgb(100%, 64.459229%, 22.666931%)" offset="0.773438"/><stop stop-opacity="1" stop-color="rgb(100%, 64.839172%, 22.569275%)" offset="0.777344"/><stop stop-opacity="1" stop-color="rgb(100%, 65.220642%, 22.471619%)" offset="0.78125"/><stop stop-opacity="1" stop-color="rgb(100%, 65.600586%, 22.373962%)" offset="0.785156"/><stop stop-opacity="1" stop-color="rgb(100%, 65.98053%, 22.277832%)" offset="0.789062"/><stop stop-opacity="1" stop-color="rgb(100%, 66.360474%, 22.180176%)" offset="0.792969"/><stop stop-opacity="1" stop-color="rgb(100%, 66.741943%, 22.084045%)" offset="0.796875"/><stop stop-opacity="1" stop-color="rgb(100%, 67.121887%, 21.986389%)" offset="0.800781"/><stop stop-opacity="1" stop-color="rgb(100%, 67.501831%, 21.888733%)" offset="0.804688"/><stop stop-opacity="1" stop-color="rgb(100%, 67.881775%, 21.791077%)" offset="0.808594"/><stop stop-opacity="1" stop-color="rgb(100%, 68.263245%, 21.694946%)" offset="0.8125"/><stop stop-opacity="1" stop-color="rgb(100%, 68.643188%, 21.59729%)" offset="0.816406"/><stop stop-opacity="1" stop-color="rgb(100%, 69.024658%, 21.499634%)" offset="0.820312"/><stop stop-opacity="1" stop-color="rgb(100%, 69.404602%, 21.401978%)" offset="0.824219"/><stop stop-opacity="1" stop-color="rgb(100%, 69.784546%, 21.305847%)" offset="0.828125"/><stop stop-opacity="1" stop-color="rgb(100%, 70.16449%, 21.208191%)" offset="0.832031"/><stop stop-opacity="1" stop-color="rgb(100%, 70.545959%, 21.112061%)" offset="0.835938"/><stop stop-opacity="1" stop-color="rgb(100%, 70.925903%, 21.014404%)" offset="0.839844"/><stop stop-opacity="1" stop-color="rgb(100%, 71.307373%, 20.916748%)" offset="0.84375"/><stop stop-opacity="1" stop-color="rgb(100%, 71.687317%, 20.819092%)" offset="0.847656"/><stop stop-opacity="1" stop-color="rgb(100%, 72.067261%, 20.722961%)" offset="0.851562"/><stop stop-opacity="1" stop-color="rgb(100%, 72.447205%, 20.625305%)" offset="0.855469"/><stop stop-opacity="1" stop-color="rgb(100%, 72.828674%, 20.527649%)" offset="0.859375"/><stop stop-opacity="1" stop-color="rgb(100%, 73.208618%, 20.429993%)" offset="0.863281"/><stop stop-opacity="1" stop-color="rgb(100%, 73.590088%, 20.333862%)" offset="0.867188"/><stop stop-opacity="1" stop-color="rgb(100%, 73.970032%, 20.236206%)" offset="0.871094"/><stop stop-opacity="1" stop-color="rgb(100%, 74.349976%, 20.140076%)" offset="0.875"/><stop stop-opacity="1" stop-color="rgb(100%, 74.624634%, 20.069885%)" offset="0.878906"/><stop stop-opacity="1" stop-color="rgb(100%, 74.899292%, 19.999695%)" offset="0.882812"/><stop stop-opacity="1" stop-color="rgb(100%, 74.899292%, 19.999695%)" offset="0.890625"/><stop stop-opacity="1" stop-color="rgb(100%, 74.899292%, 19.999695%)" offset="0.90625"/><stop stop-opacity="1" stop-color="rgb(100%, 74.899292%, 19.999695%)" offset="0.9375"/><stop stop-opacity="1" stop-color="rgb(100%, 74.899292%, 19.999695%)" offset="1"/></linearGradient><clipPath id="fde4a35454"><path d="M 330 152 L 369.855469 152 L 369.855469 208 L 330 208 Z M 330 152 " clip-rule="nonzero"/></clipPath></defs><g clip-path="url(#8dc0a3a0ea)"><g clip-path="url(#6db8acf4cb)"><path fill="url(#1417703e77)" d="M 5.5 123.414062 L 5.5 251.664062 L 105.261719 251.664062 L 105.261719 123.414062 Z M 5.5 123.414062 " fill-rule="nonzero"/></g></g><path fill="#000000" d="M 195.472656 207.640625 L 189.792969 207.640625 C 184.6875 207.640625 182.1875 205.433594 182.292969 201.011719 C 180.816406 203.328125 179.003906 205.089844 176.84375 206.304688 C 174.6875 207.515625 172.082031 208.117188 169.027344 208.117188 C 164.503906 208.117188 160.859375 207.078125 158.09375 205 C 155.332031 202.921875 153.949219 199.988281 153.949219 196.199219 C 153.949219 191.882812 155.542969 188.554688 158.726562 186.214844 C 161.910156 183.875 166.527344 182.699219 172.578125 182.699219 L 180.628906 182.699219 L 180.628906 180.726562 C 180.628906 178.886719 179.945312 177.425781 178.578125 176.347656 C 177.210938 175.265625 175.367188 174.726562 173.050781 174.726562 C 171 174.726562 169.316406 175.175781 168 176.070312 C 166.683594 176.964844 165.894531 178.175781 165.632812 179.703125 L 154.894531 179.703125 C 155.261719 175.542969 157.105469 172.320312 160.417969 170.03125 C 163.734375 167.738281 168.128906 166.597656 173.601562 166.597656 C 179.335938 166.597656 183.773438 167.859375 186.902344 170.382812 C 190.03125 172.910156 191.597656 176.570312 191.597656 181.359375 L 191.597656 195.644531 C 191.597656 196.648438 191.808594 197.332031 192.234375 197.699219 C 192.65625 198.066406 193.308594 198.253906 194.207031 198.253906 L 195.46875 198.253906 L 195.46875 207.640625 Z M 172.503906 190.117188 C 170.1875 190.117188 168.386719 190.582031 167.097656 191.5 C 165.8125 192.421875 165.164062 193.722656 165.164062 195.410156 C 165.164062 196.832031 165.703125 197.964844 166.78125 198.804688 C 167.863281 199.644531 169.320312 200.066406 171.164062 200.066406 C 174.054688 200.066406 176.347656 199.238281 178.027344 197.582031 C 179.714844 195.925781 180.582031 193.699219 180.632812 190.910156 L 180.632812 190.121094 L 172.503906 190.121094 Z M 172.503906 190.117188 " fill-opacity="1" fill-rule="nonzero"/><path fill="#000000" d="M 151.652344 220.835938 L 151.652344 211.441406 L 150.394531 211.441406 C 149.496094 211.441406 148.839844 211.257812 148.421875 210.890625 C 148.003906 210.527344 147.800781 209.859375 147.789062 208.894531 L 147.789062 167.070312 L 138.082031 167.070312 L 136.972656 172.515625 C 135.605469 170.671875 133.855469 169.226562 131.722656 168.171875 C 129.59375 167.117188 127.128906 166.59375 124.339844 166.59375 C 120.761719 166.59375 117.554688 167.464844 114.710938 169.195312 C 111.867188 170.933594 109.644531 173.382812 108.039062 176.539062 C 106.433594 179.695312 105.632812 183.328125 105.632812 187.429688 C 105.632812 191.644531 106.433594 195.3125 108.039062 198.445312 C 109.644531 201.574219 111.867188 203.96875 114.710938 205.628906 C 117.554688 207.285156 120.789062 208.113281 124.417969 208.113281 C 129.523438 208.113281 133.601562 206.21875 136.652344 202.433594 L 136.652344 212.324219 C 136.652344 217.023438 140.464844 220.835938 145.164062 220.835938 Z M 134.136719 195.800781 C 132.347656 197.960938 129.949219 199.039062 126.953125 199.039062 C 123.949219 199.039062 121.546875 197.960938 119.726562 195.800781 C 117.914062 193.644531 117.007812 190.804688 117.007812 187.277344 C 117.007812 183.800781 117.914062 181 119.726562 178.867188 C 121.546875 176.738281 123.949219 175.671875 126.953125 175.671875 C 129.949219 175.671875 132.34375 176.738281 134.136719 178.867188 C 135.925781 181 136.820312 183.828125 136.820312 187.355469 C 136.820312 190.832031 135.925781 193.644531 134.136719 195.800781 Z M 134.136719 195.800781 " fill-opacity="1" fill-rule="nonzero"/><path fill="#000000" d="M 239.566406 176.265625 C 241.171875 179.398438 241.976562 183.066406 241.976562 187.28125 C 241.976562 191.382812 241.171875 195.015625 239.566406 198.171875 C 237.960938 201.332031 235.738281 203.777344 232.898438 205.515625 C 230.054688 207.25 226.84375 208.117188 223.265625 208.117188 C 220.421875 208.117188 217.949219 207.578125 215.847656 206.5 C 213.742188 205.417969 212.003906 203.960938 210.636719 202.117188 L 209.53125 207.640625 L 199.820312 207.640625 L 199.820312 152.386719 L 210.953125 152.386719 L 210.953125 172.199219 C 214.058594 168.460938 218.136719 166.59375 223.1875 166.59375 C 226.820312 166.59375 230.054688 167.421875 232.898438 169.078125 C 235.738281 170.738281 237.960938 173.132812 239.566406 176.265625 Z M 230.6875 187.355469 C 230.6875 183.878906 229.765625 181.0625 227.925781 178.910156 C 226.085938 176.75 223.664062 175.671875 220.664062 175.671875 C 217.664062 175.671875 215.269531 176.738281 213.480469 178.867188 C 211.6875 181 210.792969 183.800781 210.792969 187.277344 C 210.792969 190.800781 211.6875 193.644531 213.480469 195.800781 C 215.269531 197.960938 217.664062 199.039062 220.664062 199.039062 C 223.660156 199.039062 226.082031 197.960938 227.925781 195.800781 C 229.765625 193.644531 230.6875 190.832031 230.6875 187.355469 Z M 230.6875 187.355469 " fill-opacity="1" fill-rule="nonzero"/><path fill="#000000" d="M 260.136719 156.410156 C 260.136719 158.203125 259.53125 159.699219 258.320312 160.914062 C 257.109375 162.125 255.582031 162.726562 253.742188 162.726562 C 251.898438 162.726562 250.359375 162.121094 249.121094 160.914062 C 247.882812 159.703125 247.265625 158.203125 247.265625 156.410156 C 247.265625 154.625 247.882812 153.136719 249.121094 151.953125 C 250.359375 150.769531 251.898438 150.175781 253.742188 150.175781 C 255.582031 150.175781 257.109375 150.769531 258.320312 151.953125 C 259.53125 153.132812 260.136719 154.621094 260.136719 156.410156 Z M 259.269531 167.070312 L 259.269531 207.640625 L 248.136719 207.640625 L 248.136719 167.070312 Z M 259.269531 167.070312 " fill-opacity="1" fill-rule="nonzero"/><path fill="#000000" d="M 267.003906 152.386719 L 278.136719 152.386719 L 278.136719 207.640625 L 267.003906 207.640625 Z M 267.003906 152.386719 " fill-opacity="1" fill-rule="nonzero"/><path fill="#000000" d="M 325.816406 207.640625 L 320.136719 207.640625 C 315.03125 207.640625 312.53125 205.433594 312.636719 201.011719 C 311.160156 203.328125 309.347656 205.089844 307.1875 206.304688 C 305.035156 207.515625 302.425781 208.117188 299.375 208.117188 C 294.851562 208.117188 291.203125 207.078125 288.441406 205 C 285.679688 202.921875 284.296875 199.988281 284.296875 196.199219 C 284.296875 191.882812 285.890625 188.554688 289.074219 186.214844 C 292.257812 183.875 296.875 182.699219 302.925781 182.699219 L 310.976562 182.699219 L 310.976562 180.726562 C 310.976562 178.886719 310.292969 177.425781 308.921875 176.347656 C 307.558594 175.265625 305.710938 174.726562 303.398438 174.726562 C 301.34375 174.726562 299.664062 175.175781 298.347656 176.070312 C 297.03125 176.964844 296.242188 178.175781 295.980469 179.703125 L 285.246094 179.703125 C 285.613281 175.542969 287.453125 172.320312 290.769531 170.03125 C 294.085938 167.738281 298.480469 166.597656 303.953125 166.597656 C 309.6875 166.597656 314.121094 167.859375 317.253906 170.382812 C 320.382812 172.910156 321.949219 176.570312 321.949219 181.359375 L 321.949219 195.644531 C 321.949219 196.648438 322.160156 197.332031 322.582031 197.699219 C 323.003906 198.066406 323.660156 198.253906 324.554688 198.253906 L 325.816406 198.253906 Z M 302.847656 190.117188 C 300.527344 190.117188 298.726562 190.582031 297.441406 191.5 C 296.152344 192.421875 295.507812 193.722656 295.507812 195.410156 C 295.507812 196.832031 296.046875 197.964844 297.125 198.804688 C 298.207031 199.644531 299.664062 200.066406 301.507812 200.066406 C 304.402344 200.066406 306.691406 199.238281 308.375 197.582031 C 310.058594 195.925781 310.925781 193.699219 310.980469 190.910156 L 310.980469 190.121094 L 302.847656 190.121094 Z M 302.847656 190.117188 " fill-opacity="1" fill-rule="nonzero"/><g clip-path="url(#fde4a35454)"><path fill="#000000" d="M 369.710938 185.621094 L 369.710938 207.644531 L 358.582031 207.644531 L 358.582031 186.097656 C 358.582031 182.726562 357.894531 180.164062 356.527344 178.398438 C 355.160156 176.636719 353.105469 175.757812 350.367188 175.757812 C 347.527344 175.757812 345.304688 176.730469 343.699219 178.675781 C 342.09375 180.621094 341.289062 183.332031 341.289062 186.808594 L 341.289062 207.644531 L 330.160156 207.644531 L 330.160156 152.386719 L 341.289062 152.386719 L 341.289062 172.039062 C 344.289062 168.40625 348.292969 166.59375 353.289062 166.59375 C 358.078125 166.59375 362.011719 168.066406 365.089844 171.015625 C 368.171875 173.960938 369.710938 178.828125 369.710938 185.621094 Z M 369.710938 185.621094 " fill-opacity="1" fill-rule="nonzero"/></g></svg>