<svg xmlns="http://www.w3.org/2000/svg" xmlns:xlink="http://www.w3.org/1999/xlink" width="500" zoomAndPan="magnify" viewBox="0 0 375 374.999991" height="500" preserveAspectRatio="xMidYMid meet" version="1.0"><defs><clipPath id="1c260464cc"><path d="M 5.699219 123.398438 L 105 123.398438 L 105 251.648438 L 5.699219 251.648438 Z M 5.699219 123.398438 " clip-rule="nonzero"/></clipPath><clipPath id="aafda575ac"><path d="M 60.449219 251.429688 C 53.644531 252.175781 48.300781 250.003906 44.5625 247.226562 C 40.859375 244.410156 38.96875 240.492188 38.96875 235.433594 C 38.96875 230.375 39.363281 230.375 40.109375 227.988281 L 50.011719 190.300781 C 44.097656 196.5 37.082031 199.597656 28.996094 199.597656 C 20.910156 199.597656 20.769531 198.566406 17.207031 196.535156 C 13.644531 194.46875 10.832031 191.441406 8.765625 187.382812 C 6.699219 183.320312 5.699219 178.476562 5.699219 172.847656 C 5.699219 167.21875 6.269531 163.691406 7.410156 159.417969 C 9.40625 151.511719 12.539062 144.847656 16.777344 139.46875 C 21.015625 134.089844 25.933594 130.066406 31.527344 127.464844 C 37.082031 124.792969 42.886719 123.476562 48.871094 123.476562 C 54.855469 123.476562 59.238281 124.296875 63.085938 125.898438 C 66.929688 127.539062 70.386719 129.996094 73.449219 133.34375 L 82.996094 125.472656 C 83.421875 125.113281 83.957031 124.9375 84.527344 124.9375 L 102.550781 124.9375 C 104.15625 124.9375 105.292969 126.46875 104.867188 128 L 77.296875 224.285156 C 76.550781 227.0625 76.15625 228.949219 76.15625 230.019531 C 76.15625 231.089844 76.476562 232.121094 77.082031 232.585938 C 77.6875 233.046875 78.722656 233.296875 80.148438 233.296875 C 81.570312 233.296875 81.464844 233.261719 82.210938 233.152344 C 83.421875 233.011719 84.632812 232.796875 85.847656 232.476562 L 90.9375 231.230469 C 92.042969 230.945312 92.933594 232.15625 92.328125 233.152344 C 92.328125 233.152344 79.539062 249.289062 60.414062 251.464844 Z M 60.449219 251.429688 " clip-rule="nonzero"/></clipPath><linearGradient x1="-43.020464" gradientTransform="matrix(0.356199, 0, 0, -0.356212, 5.701018, 252.425335)" y1="116.595136" x2="320.481624" gradientUnits="userSpaceOnUse" y2="253.274152" id="58e98286dd"><stop stop-opacity="1" stop-color="rgb(100%, 32.899475%, 30.999756%)" offset="0"/><stop stop-opacity="1" stop-color="rgb(100%, 32.899475%, 30.999756%)" offset="0.125"/><stop stop-opacity="1" stop-color="rgb(100%, 33.068848%, 30.964661%)" offset="0.1875"/><stop stop-opacity="1" stop-color="rgb(100%, 33.346558%, 30.909729%)" offset="0.203125"/><stop stop-opacity="1" stop-color="rgb(100%, 33.563232%, 30.865479%)" offset="0.21875"/><stop stop-opacity="1" stop-color="rgb(100%, 33.781433%, 30.822754%)" offset="0.234375"/><stop stop-opacity="1" stop-color="rgb(100%, 33.999634%, 30.778503%)" offset="0.25"/><stop stop-opacity="1" stop-color="rgb(100%, 34.216309%, 30.735779%)" offset="0.265625"/><stop stop-opacity="1" stop-color="rgb(100%, 34.434509%, 30.691528%)" offset="0.28125"/><stop stop-opacity="1" stop-color="rgb(100%, 34.65271%, 30.648804%)" offset="0.296875"/><stop stop-opacity="1" stop-color="rgb(100%, 34.931946%, 30.580139%)" offset="0.3125"/><stop stop-opacity="1" stop-color="rgb(100%, 35.243225%, 30.490112%)" offset="0.320312"/><stop stop-opacity="1" stop-color="rgb(100%, 35.519409%, 30.403137%)" offset="0.326093"/><stop stop-opacity="1" stop-color="rgb(100%, 35.658264%, 30.360413%)" offset="0.328125"/><stop stop-opacity="1" stop-color="rgb(100%, 35.797119%, 30.316162%)" offset="0.335938"/><stop stop-opacity="1" stop-color="rgb(100%, 36.074829%, 30.229187%)" offset="0.34375"/><stop stop-opacity="1" stop-color="rgb(100%, 36.352539%, 30.142212%)" offset="0.351562"/><stop stop-opacity="1" stop-color="rgb(100%, 36.630249%, 30.055237%)" offset="0.359375"/><stop stop-opacity="1" stop-color="rgb(100%, 36.907959%, 29.968262%)" offset="0.367188"/><stop stop-opacity="1" stop-color="rgb(100%, 37.185669%, 29.881287%)" offset="0.375"/><stop stop-opacity="1" stop-color="rgb(100%, 37.463379%, 29.794312%)" offset="0.382812"/><stop stop-opacity="1" stop-color="rgb(100%, 37.741089%, 29.707336%)" offset="0.390625"/><stop stop-opacity="1" stop-color="rgb(100%, 38.018799%, 29.620361%)" offset="0.398438"/><stop stop-opacity="1" stop-color="rgb(100%, 38.296509%, 29.533386%)" offset="0.40625"/><stop stop-opacity="1" stop-color="rgb(100%, 38.572693%, 29.446411%)" offset="0.414062"/><stop stop-opacity="1" stop-color="rgb(100%, 38.850403%, 29.359436%)" offset="0.421875"/><stop stop-opacity="1" stop-color="rgb(100%, 39.128113%, 29.270935%)" offset="0.429688"/><stop stop-opacity="1" stop-color="rgb(100%, 39.405823%, 29.18396%)" offset="0.4375"/><stop stop-opacity="1" stop-color="rgb(100%, 39.683533%, 29.096985%)" offset="0.445312"/><stop stop-opacity="1" stop-color="rgb(100%, 39.99939%, 29.003906%)" offset="0.453125"/><stop stop-opacity="1" stop-color="rgb(100%, 40.420532%, 28.890991%)" offset="0.457031"/><stop stop-opacity="1" stop-color="rgb(100%, 40.666199%, 28.82843%)" offset="0.460938"/><stop stop-opacity="1" stop-color="rgb(100%, 40.911865%, 28.765869%)" offset="0.464844"/><stop stop-opacity="1" stop-color="rgb(100%, 41.157532%, 28.703308%)" offset="0.46875"/><stop stop-opacity="1" stop-color="rgb(100%, 41.401672%, 28.640747%)" offset="0.472656"/><stop stop-opacity="1" stop-color="rgb(100%, 41.647339%, 28.578186%)" offset="0.476562"/><stop stop-opacity="1" stop-color="rgb(100%, 41.891479%, 28.515625%)" offset="0.480469"/><stop stop-opacity="1" stop-color="rgb(100%, 42.137146%, 28.453064%)" offset="0.484375"/><stop stop-opacity="1" stop-color="rgb(100%, 42.381287%, 28.390503%)" offset="0.488281"/><stop stop-opacity="1" stop-color="rgb(100%, 42.626953%, 28.327942%)" offset="0.492188"/><stop stop-opacity="1" stop-color="rgb(100%, 42.871094%, 28.265381%)" offset="0.496094"/><stop stop-opacity="1" stop-color="rgb(100%, 43.11676%, 28.20282%)" offset="0.5"/><stop stop-opacity="1" stop-color="rgb(100%, 43.360901%, 28.140259%)" offset="0.503906"/><stop stop-opacity="1" stop-color="rgb(100%, 43.606567%, 28.077698%)" offset="0.507812"/><stop stop-opacity="1" stop-color="rgb(100%, 43.850708%, 28.015137%)" offset="0.511719"/><stop stop-opacity="1" stop-color="rgb(100%, 44.096375%, 27.952576%)" offset="0.515625"/><stop stop-opacity="1" stop-color="rgb(100%, 44.340515%, 27.890015%)" offset="0.519531"/><stop stop-opacity="1" stop-color="rgb(100%, 44.586182%, 27.827454%)" offset="0.523437"/><stop stop-opacity="1" stop-color="rgb(100%, 44.830322%, 27.764893%)" offset="0.527344"/><stop stop-opacity="1" stop-color="rgb(100%, 45.075989%, 27.702332%)" offset="0.53125"/><stop stop-opacity="1" stop-color="rgb(100%, 45.320129%, 27.639771%)" offset="0.535156"/><stop stop-opacity="1" stop-color="rgb(100%, 45.565796%, 27.577209%)" offset="0.539062"/><stop stop-opacity="1" stop-color="rgb(100%, 45.809937%, 27.514648%)" offset="0.542969"/><stop stop-opacity="1" stop-color="rgb(100%, 46.055603%, 27.452087%)" offset="0.546875"/><stop stop-opacity="1" stop-color="rgb(100%, 46.299744%, 27.389526%)" offset="0.550781"/><stop stop-opacity="1" stop-color="rgb(100%, 46.54541%, 27.326965%)" offset="0.554687"/><stop stop-opacity="1" stop-color="rgb(100%, 46.789551%, 27.264404%)" offset="0.558594"/><stop stop-opacity="1" stop-color="rgb(100%, 47.035217%, 27.201843%)" offset="0.5625"/><stop stop-opacity="1" stop-color="rgb(100%, 47.279358%, 27.139282%)" offset="0.566406"/><stop stop-opacity="1" stop-color="rgb(100%, 47.525024%, 27.076721%)" offset="0.570312"/><stop stop-opacity="1" stop-color="rgb(100%, 47.769165%, 27.01416%)" offset="0.574219"/><stop stop-opacity="1" stop-color="rgb(100%, 48.014832%, 26.951599%)" offset="0.578125"/><stop stop-opacity="1" stop-color="rgb(100%, 48.258972%, 26.889038%)" offset="0.582031"/><stop stop-opacity="1" stop-color="rgb(100%, 48.504639%, 26.826477%)" offset="0.585937"/><stop stop-opacity="1" stop-color="rgb(100%, 48.748779%, 26.763916%)" offset="0.589844"/><stop stop-opacity="1" stop-color="rgb(100%, 48.994446%, 26.701355%)" offset="0.59375"/><stop stop-opacity="1" stop-color="rgb(100%, 49.325562%, 26.61438%)" offset="0.597656"/><stop stop-opacity="1" stop-color="rgb(100%, 49.656677%, 26.527405%)" offset="0.601562"/><stop stop-opacity="1" stop-color="rgb(100%, 49.987793%, 26.44043%)" offset="0.605469"/><stop stop-opacity="1" stop-color="rgb(100%, 50.320435%, 26.353455%)" offset="0.609375"/><stop stop-opacity="1" stop-color="rgb(100%, 50.65155%, 26.264954%)" offset="0.613281"/><stop stop-opacity="1" stop-color="rgb(100%, 50.984192%, 26.177979%)" offset="0.617187"/><stop stop-opacity="1" stop-color="rgb(100%, 51.315308%, 26.091003%)" offset="0.621094"/><stop stop-opacity="1" stop-color="rgb(100%, 51.647949%, 26.004028%)" offset="0.625"/><stop stop-opacity="1" stop-color="rgb(100%, 51.979065%, 25.917053%)" offset="0.628906"/><stop stop-opacity="1" stop-color="rgb(100%, 52.311707%, 25.830078%)" offset="0.632812"/><stop stop-opacity="1" stop-color="rgb(100%, 52.642822%, 25.743103%)" offset="0.636719"/><stop stop-opacity="1" stop-color="rgb(100%, 52.975464%, 25.656128%)" offset="0.640625"/><stop stop-opacity="1" stop-color="rgb(100%, 53.30658%, 25.569153%)" offset="0.644531"/><stop stop-opacity="1" stop-color="rgb(100%, 53.639221%, 25.482178%)" offset="0.648437"/><stop stop-opacity="1" stop-color="rgb(100%, 53.971863%, 25.395203%)" offset="0.652344"/><stop stop-opacity="1" stop-color="rgb(100%, 54.304504%, 25.308228%)" offset="0.65625"/><stop stop-opacity="1" stop-color="rgb(100%, 54.63562%, 25.221252%)" offset="0.660156"/><stop stop-opacity="1" stop-color="rgb(100%, 54.968262%, 25.134277%)" offset="0.664062"/><stop stop-opacity="1" stop-color="rgb(100%, 55.299377%, 25.047302%)" offset="0.667969"/><stop stop-opacity="1" stop-color="rgb(100%, 55.632019%, 24.960327%)" offset="0.671875"/><stop stop-opacity="1" stop-color="rgb(100%, 55.963135%, 24.871826%)" offset="0.675781"/><stop stop-opacity="1" stop-color="rgb(100%, 56.295776%, 24.784851%)" offset="0.679687"/><stop stop-opacity="1" stop-color="rgb(100%, 56.626892%, 24.697876%)" offset="0.683594"/><stop stop-opacity="1" stop-color="rgb(100%, 56.959534%, 24.610901%)" offset="0.6875"/><stop stop-opacity="1" stop-color="rgb(100%, 57.290649%, 24.523926%)" offset="0.691406"/><stop stop-opacity="1" stop-color="rgb(100%, 57.623291%, 24.436951%)" offset="0.695312"/><stop stop-opacity="1" stop-color="rgb(100%, 57.954407%, 24.349976%)" offset="0.699219"/><stop stop-opacity="1" stop-color="rgb(100%, 58.287048%, 24.263%)" offset="0.703125"/><stop stop-opacity="1" stop-color="rgb(100%, 58.61969%, 24.176025%)" offset="0.707031"/><stop stop-opacity="1" stop-color="rgb(100%, 58.952332%, 24.08905%)" offset="0.710937"/><stop stop-opacity="1" stop-color="rgb(100%, 59.283447%, 24.002075%)" offset="0.714844"/><stop stop-opacity="1" stop-color="rgb(100%, 59.616089%, 23.9151%)" offset="0.71875"/><stop stop-opacity="1" stop-color="rgb(100%, 59.947205%, 23.828125%)" offset="0.722656"/><stop stop-opacity="1" stop-color="rgb(100%, 60.279846%, 23.74115%)" offset="0.726562"/><stop stop-opacity="1" stop-color="rgb(100%, 60.610962%, 23.652649%)" offset="0.730469"/><stop stop-opacity="1" stop-color="rgb(100%, 60.943604%, 23.565674%)" offset="0.734375"/><stop stop-opacity="1" stop-color="rgb(100%, 61.300659%, 23.474121%)" offset="0.738281"/><stop stop-opacity="1" stop-color="rgb(100%, 61.657715%, 23.382568%)" offset="0.742187"/><stop stop-opacity="1" stop-color="rgb(100%, 62.030029%, 23.286438%)" offset="0.746094"/><stop stop-opacity="1" stop-color="rgb(100%, 62.40387%, 23.191833%)" offset="0.75"/><stop stop-opacity="1" stop-color="rgb(100%, 62.776184%, 23.095703%)" offset="0.753906"/><stop stop-opacity="1" stop-color="rgb(100%, 63.148499%, 23.001099%)" offset="0.757812"/><stop stop-opacity="1" stop-color="rgb(100%, 63.520813%, 22.904968%)" offset="0.761719"/><stop stop-opacity="1" stop-color="rgb(100%, 63.894653%, 22.810364%)" offset="0.765625"/><stop stop-opacity="1" stop-color="rgb(100%, 64.266968%, 22.714233%)" offset="0.769531"/><stop stop-opacity="1" stop-color="rgb(100%, 64.640808%, 22.619629%)" offset="0.773437"/><stop stop-opacity="1" stop-color="rgb(100%, 65.013123%, 22.525024%)" offset="0.777344"/><stop stop-opacity="1" stop-color="rgb(100%, 65.385437%, 22.43042%)" offset="0.78125"/><stop stop-opacity="1" stop-color="rgb(100%, 65.757751%, 22.33429%)" offset="0.785156"/><stop stop-opacity="1" stop-color="rgb(100%, 66.131592%, 22.239685%)" offset="0.789062"/><stop stop-opacity="1" stop-color="rgb(100%, 66.503906%, 22.143555%)" offset="0.792969"/><stop stop-opacity="1" stop-color="rgb(100%, 66.877747%, 22.04895%)" offset="0.796875"/><stop stop-opacity="1" stop-color="rgb(100%, 67.250061%, 21.95282%)" offset="0.800781"/><stop stop-opacity="1" stop-color="rgb(100%, 67.622375%, 21.858215%)" offset="0.804687"/><stop stop-opacity="1" stop-color="rgb(100%, 67.99469%, 21.762085%)" offset="0.808594"/><stop stop-opacity="1" stop-color="rgb(100%, 68.36853%, 21.66748%)" offset="0.8125"/><stop stop-opacity="1" stop-color="rgb(100%, 68.740845%, 21.57135%)" offset="0.816406"/><stop stop-opacity="1" stop-color="rgb(100%, 69.113159%, 21.476746%)" offset="0.820312"/><stop stop-opacity="1" stop-color="rgb(100%, 69.485474%, 21.380615%)" offset="0.824219"/><stop stop-opacity="1" stop-color="rgb(100%, 69.859314%, 21.286011%)" offset="0.828125"/><stop stop-opacity="1" stop-color="rgb(100%, 70.231628%, 21.191406%)" offset="0.832031"/><stop stop-opacity="1" stop-color="rgb(100%, 70.605469%, 21.096802%)" offset="0.835937"/><stop stop-opacity="1" stop-color="rgb(100%, 70.977783%, 21.000671%)" offset="0.839844"/><stop stop-opacity="1" stop-color="rgb(100%, 71.350098%, 20.906067%)" offset="0.84375"/><stop stop-opacity="1" stop-color="rgb(100%, 71.722412%, 20.809937%)" offset="0.847656"/><stop stop-opacity="1" stop-color="rgb(100%, 72.096252%, 20.715332%)" offset="0.851562"/><stop stop-opacity="1" stop-color="rgb(100%, 72.468567%, 20.619202%)" offset="0.855469"/><stop stop-opacity="1" stop-color="rgb(100%, 72.842407%, 20.524597%)" offset="0.859375"/><stop stop-opacity="1" stop-color="rgb(100%, 73.214722%, 20.428467%)" offset="0.863281"/><stop stop-opacity="1" stop-color="rgb(100%, 73.587036%, 20.333862%)" offset="0.867187"/><stop stop-opacity="1" stop-color="rgb(100%, 73.959351%, 20.237732%)" offset="0.871094"/><stop stop-opacity="1" stop-color="rgb(100%, 74.333191%, 20.143127%)" offset="0.875"/><stop stop-opacity="1" stop-color="rgb(100%, 74.615479%, 20.071411%)" offset="0.878906"/><stop stop-opacity="1" stop-color="rgb(100%, 74.899292%, 19.999695%)" offset="0.882813"/><stop stop-opacity="1" stop-color="rgb(100%, 74.899292%, 19.999695%)" offset="0.890625"/><stop stop-opacity="1" stop-color="rgb(100%, 74.899292%, 19.999695%)" offset="0.90625"/><stop stop-opacity="1" stop-color="rgb(100%, 74.899292%, 19.999695%)" offset="0.9375"/><stop stop-opacity="1" stop-color="rgb(100%, 74.899292%, 19.999695%)" offset="1"/></linearGradient><clipPath id="25d6b642ae"><path d="M 329 152 L 369.449219 152 L 369.449219 208 L 329 208 Z M 329 152 " clip-rule="nonzero"/></clipPath></defs><g clip-path="url(#1c260464cc)"><g clip-path="url(#aafda575ac)"><path fill="url(#58e98286dd)" d="M 5.699219 251.648438 L 5.699219 123.476562 L 105.292969 123.476562 L 105.292969 251.648438 Z M 5.699219 251.648438 " fill-rule="nonzero"/></g></g><path fill="#ffffff" d="M 195.449219 207.613281 L 189.785156 207.613281 C 184.691406 207.613281 182.199219 205.40625 182.304688 200.988281 C 180.84375 203.304688 179.027344 205.050781 176.855469 206.261719 C 174.679688 207.472656 172.082031 208.078125 169.054688 208.078125 C 164.53125 208.078125 160.898438 207.042969 158.152344 204.976562 C 155.375 202.910156 154.023438 199.957031 154.023438 196.179688 C 154.023438 192.402344 155.625 188.554688 158.796875 186.207031 C 161.964844 183.855469 166.597656 182.679688 172.617188 182.679688 L 180.664062 182.679688 L 180.664062 180.71875 C 180.664062 178.867188 179.988281 177.40625 178.601562 176.339844 C 177.246094 175.269531 175.394531 174.734375 173.078125 174.734375 C 170.761719 174.734375 169.339844 175.199219 168.019531 176.089844 C 166.703125 176.980469 165.917969 178.191406 165.667969 179.722656 L 154.949219 179.722656 C 155.304688 175.554688 157.15625 172.347656 160.46875 170.070312 C 163.78125 167.789062 168.164062 166.648438 173.648438 166.648438 C 179.132812 166.648438 183.800781 167.894531 186.933594 170.425781 C 190.070312 172.953125 191.636719 176.585938 191.636719 181.398438 L 191.636719 195.679688 C 191.636719 196.679688 191.851562 197.355469 192.277344 197.746094 C 192.707031 198.101562 193.347656 198.316406 194.238281 198.316406 L 195.484375 198.316406 L 195.484375 207.683594 Z M 172.507812 190.089844 C 170.195312 190.089844 168.414062 190.550781 167.09375 191.476562 C 165.8125 192.402344 165.171875 193.6875 165.171875 195.394531 C 165.171875 197.105469 165.707031 197.925781 166.773438 198.78125 C 167.84375 199.632812 169.304688 200.027344 171.15625 200.027344 C 174.039062 200.027344 176.320312 199.207031 178.03125 197.53125 C 179.703125 195.894531 180.558594 193.648438 180.628906 190.871094 L 180.628906 190.089844 Z M 172.507812 190.089844 " fill-opacity="1" fill-rule="nonzero"/><path fill="#ffffff" d="M 151.671875 220.792969 L 151.671875 211.425781 L 150.425781 211.425781 C 149.535156 211.425781 148.855469 211.246094 148.464844 210.855469 C 148.039062 210.5 147.859375 209.824219 147.824219 208.859375 L 147.824219 167.078125 L 138.136719 167.078125 L 137.03125 172.527344 C 135.679688 170.675781 133.933594 169.25 131.796875 168.179688 C 129.65625 167.148438 127.199219 166.613281 124.421875 166.613281 C 121.644531 166.613281 117.652344 167.46875 114.804688 169.214844 C 111.953125 170.960938 109.746094 173.382812 108.144531 176.550781 C 106.539062 179.722656 105.722656 183.320312 105.722656 187.417969 C 105.722656 191.511719 106.503906 195.289062 108.144531 198.421875 C 109.78125 201.558594 111.953125 203.945312 114.804688 205.582031 C 117.652344 207.222656 120.859375 208.078125 124.492188 208.078125 C 128.125 208.078125 133.683594 206.1875 136.710938 202.414062 L 136.710938 212.28125 C 136.710938 216.980469 140.523438 220.792969 145.222656 220.792969 L 151.707031 220.792969 Z M 134.183594 195.789062 C 132.402344 197.960938 130.015625 199.027344 127.023438 199.027344 C 124.03125 199.027344 121.609375 197.960938 119.828125 195.789062 C 118.046875 193.613281 117.121094 190.800781 117.121094 187.273438 C 117.121094 183.746094 118.011719 181.003906 119.828125 178.867188 C 121.644531 176.730469 124.03125 175.660156 127.023438 175.660156 C 130.015625 175.660156 132.402344 176.730469 134.183594 178.867188 C 135.960938 181.003906 136.851562 183.820312 136.851562 187.34375 C 136.851562 190.871094 135.960938 193.613281 134.183594 195.789062 Z M 134.183594 195.789062 " fill-opacity="1" fill-rule="nonzero"/><path fill="#ffffff" d="M 239.472656 176.265625 C 241.078125 179.402344 241.894531 183.070312 241.894531 187.273438 C 241.894531 191.476562 241.113281 195.003906 239.472656 198.136719 C 237.871094 201.308594 235.664062 203.730469 232.8125 205.476562 C 229.964844 207.222656 226.757812 208.078125 223.195312 208.078125 C 219.632812 208.078125 217.886719 207.542969 215.785156 206.472656 C 213.683594 205.40625 211.941406 203.945312 210.585938 202.09375 L 209.480469 207.613281 L 199.792969 207.613281 L 199.792969 152.402344 L 210.90625 152.402344 L 210.90625 172.171875 C 214.007812 168.429688 218.066406 166.578125 223.125 166.578125 C 228.183594 166.578125 230 167.398438 232.8125 169.070312 C 235.664062 170.746094 237.871094 173.132812 239.472656 176.265625 Z M 230.605469 187.34375 C 230.605469 183.890625 229.679688 181.074219 227.828125 178.902344 C 225.972656 176.730469 223.550781 175.660156 220.558594 175.660156 C 217.566406 175.660156 215.179688 176.730469 213.402344 178.867188 C 211.621094 181.003906 210.730469 183.785156 210.730469 187.273438 C 210.730469 190.765625 211.621094 193.648438 213.402344 195.789062 C 215.179688 197.960938 217.566406 199.027344 220.558594 199.027344 C 223.550781 199.027344 225.972656 197.960938 227.828125 195.789062 C 229.679688 193.613281 230.605469 190.835938 230.605469 187.34375 Z M 230.605469 187.34375 " fill-opacity="1" fill-rule="nonzero"/><path fill="#ffffff" d="M 260.027344 156.425781 C 260.027344 158.207031 259.421875 159.703125 258.210938 160.914062 C 257 162.125 255.46875 162.730469 253.652344 162.730469 C 251.835938 162.730469 250.265625 162.125 249.019531 160.914062 C 247.773438 159.703125 247.167969 158.207031 247.167969 156.425781 C 247.167969 154.644531 247.773438 153.148438 249.019531 151.972656 C 250.265625 150.796875 251.796875 150.191406 253.652344 150.191406 C 255.503906 150.191406 257 150.796875 258.210938 151.972656 C 259.421875 153.148438 260.027344 154.644531 260.027344 156.425781 Z M 259.136719 167.078125 L 259.136719 207.613281 L 248.023438 207.613281 L 248.023438 167.078125 Z M 259.136719 167.078125 " fill-opacity="1" fill-rule="nonzero"/><path fill="#ffffff" d="M 266.902344 152.402344 L 278.015625 152.402344 L 278.015625 207.578125 L 266.902344 207.578125 Z M 266.902344 152.402344 " fill-opacity="1" fill-rule="nonzero"/><path fill="#ffffff" d="M 325.636719 207.613281 L 319.976562 207.613281 C 314.882812 207.613281 312.386719 205.40625 312.496094 200.988281 C 311.035156 203.304688 309.21875 205.050781 307.046875 206.261719 C 304.90625 207.472656 302.308594 208.078125 299.246094 208.078125 C 294.71875 208.078125 291.085938 207.042969 288.308594 204.976562 C 285.53125 202.910156 284.175781 199.957031 284.175781 196.179688 C 284.175781 192.402344 285.78125 188.554688 288.949219 186.207031 C 292.121094 183.855469 296.75 182.679688 302.769531 182.679688 L 310.820312 182.679688 L 310.820312 180.71875 C 310.820312 178.867188 310.144531 177.40625 308.753906 176.339844 C 307.402344 175.269531 305.550781 174.734375 303.234375 174.734375 C 300.917969 174.734375 299.492188 175.199219 298.175781 176.089844 C 296.859375 176.980469 296.074219 178.191406 295.824219 179.722656 L 285.101562 179.722656 C 285.460938 175.554688 287.3125 172.347656 290.625 170.070312 C 293.9375 167.789062 298.316406 166.648438 303.804688 166.648438 C 309.289062 166.648438 313.957031 167.894531 317.089844 170.425781 C 320.222656 172.953125 321.792969 176.585938 321.792969 181.398438 L 321.792969 195.679688 C 321.792969 196.679688 322.003906 197.355469 322.433594 197.746094 C 322.859375 198.101562 323.5 198.316406 324.390625 198.316406 L 325.636719 198.316406 L 325.636719 207.683594 Z M 302.664062 190.089844 C 300.347656 190.089844 298.566406 190.550781 297.25 191.476562 C 295.96875 192.402344 295.324219 193.6875 295.324219 195.394531 C 295.324219 197.105469 295.859375 197.925781 296.929688 198.78125 C 297.996094 199.632812 299.457031 200.027344 301.308594 200.027344 C 304.195312 200.027344 306.476562 199.207031 308.183594 197.53125 C 309.859375 195.894531 310.75 193.648438 310.785156 190.871094 L 310.785156 190.089844 Z M 302.664062 190.089844 " fill-opacity="1" fill-rule="nonzero"/><g clip-path="url(#25d6b642ae)"><path fill="#ffffff" d="M 369.449219 185.601562 L 369.449219 207.613281 L 358.335938 207.613281 L 358.335938 186.097656 C 358.335938 182.75 357.660156 180.183594 356.273438 178.40625 C 354.917969 176.660156 352.851562 175.769531 350.109375 175.769531 C 347.367188 175.769531 345.050781 176.730469 343.449219 178.6875 C 341.84375 180.648438 341.027344 183.355469 341.027344 186.8125 L 341.027344 207.613281 L 329.914062 207.613281 L 329.914062 152.402344 L 341.027344 152.402344 L 341.027344 172.027344 C 344.019531 168.394531 348.007812 166.578125 352.996094 166.578125 C 357.980469 166.578125 361.722656 168.039062 364.785156 170.996094 C 367.847656 173.953125 369.414062 178.796875 369.414062 185.601562 Z M 369.449219 185.601562 " fill-opacity="1" fill-rule="nonzero"/></g></svg>
